<?xml version="1.0" standalone="no"?>
<!DOCTYPE svg PUBLIC "-//W3C//DTD SVG 20010904//EN"
 "http://www.w3.org/TR/2001/REC-SVG-20010904/DTD/svg10.dtd">
<svg version="1.0" xmlns="http://www.w3.org/2000/svg"
 width="512.000000pt" height="512.000000pt" viewBox="0 0 512.000000 512.000000"
 preserveAspectRatio="xMidYMid meet">
<metadata>
Created by potrace 1.11, written by Peter Selinger 2001-2013
</metadata>
<g transform="translate(0.000000,512.000000) scale(0.100000,-0.100000)"
fill="#000000" stroke="none">
<path d="M2309 5101 c-90 -45 -110 -88 -125 -266 -3 -44 -8 -87 -10 -95 -1 -8
-3 -33 -3 -56 l-1 -41 -127 -33 c-71 -17 -137 -34 -148 -37 -21 -5 -17 -9
-158 195 -63 91 -117 126 -191 126 -60 -1 -81 -10 -276 -122 -154 -88 -190
-119 -209 -181 -21 -72 -16 -90 74 -286 64 -138 69 -115 -44 -224 l-100 -96
-148 72 c-81 40 -166 75 -188 78 -88 10 -153 -32 -220 -142 -25 -43 -65 -107
-87 -143 -79 -126 -91 -157 -85 -216 3 -29 14 -67 24 -84 14 -24 139 -125 290
-235 2 -1 -10 -42 -26 -92 -16 -49 -39 -131 -51 -181 l-22 -92 -41 -1 c-23 0
-50 -2 -60 -4 -10 -2 -55 -6 -100 -10 -166 -12 -209 -32 -256 -120 -18 -33
-20 -58 -21 -244 -1 -215 4 -250 44 -304 38 -53 94 -73 231 -82 44 -3 89 -8
100 -10 11 -2 38 -4 61 -4 l40 -1 33 -127 c18 -71 35 -137 38 -148 4 -17 -20
-37 -130 -114 -164 -113 -188 -142 -192 -231 -3 -47 7 -72 74 -193 142 -255
154 -270 230 -295 67 -23 91 -17 286 73 137 64 114 68 223 -45 l97 -99 -72
-148 c-40 -82 -75 -163 -78 -181 -7 -43 11 -109 40 -148 35 -46 361 -243 416
-250 63 -9 119 9 162 53 28 28 141 173 202 260 1 2 42 -10 92 -26 49 -16 131
-39 181 -51 l92 -22 1 -41 c1 -23 3 -51 4 -62 1 -11 6 -56 9 -100 14 -159 31
-199 111 -251 28 -17 49 -19 266 -19 l236 0 42 29 c66 46 84 91 96 248 4 43 8
86 10 95 2 10 4 36 4 59 l1 41 128 33 c70 17 136 34 148 37 15 3 27 -6 50 -39
66 -98 149 -214 164 -229 28 -31 85 -53 135 -53 50 -1 76 9 175 66 25 14 92
52 149 85 121 69 158 110 167 189 6 45 1 62 -41 160 -26 60 -59 133 -73 161
l-25 52 101 98 101 98 153 -75 c138 -68 159 -75 211 -74 89 1 123 31 224 194
45 74 94 152 107 173 45 70 46 167 2 226 -12 16 -49 50 -82 75 -32 25 -64 49
-69 53 -9 7 -127 94 -132 98 -2 1 13 49 31 107 19 58 42 140 51 182 l17 76 37
1 c36 0 53 2 213 19 105 11 154 34 194 91 l29 42 0 237 0 237 -29 42 c-45 65
-91 84 -231 95 -225 19 -218 16 -231 89 -3 23 -17 78 -30 121 -13 44 -24 85
-24 91 0 6 54 48 119 94 155 107 166 117 191 173 36 82 26 113 -123 373 -87
152 -123 186 -206 190 -55 3 -94 -8 -189 -54 -34 -17 -64 -31 -67 -31 -2 0
-29 -12 -60 -26 l-55 -26 -98 100 -98 101 74 148 c77 155 89 203 69 269 -13
41 -60 96 -104 121 -17 10 -94 56 -170 103 -137 84 -139 85 -203 84 -70 0
-121 -22 -150 -65 -8 -12 -19 -27 -25 -33 -5 -6 -43 -56 -84 -111 -41 -55 -75
-101 -76 -103 -1 -1 -42 11 -91 27 -49 16 -131 39 -181 51 l-93 22 -1 41 c0
23 -2 50 -4 59 -2 9 -6 54 -9 100 -12 152 -30 197 -97 244 l-42 29 -226 2
c-204 3 -230 1 -262 -16z m466 -1187 c176 -29 254 -53 402 -126 183 -89 371
-242 483 -393 25 -33 48 -61 53 -63 4 -2 7 -8 7 -13 0 -5 15 -32 33 -61 207
-330 250 -801 107 -1178 -124 -324 -377 -601 -685 -750 -124 -60 -198 -84
-345 -114 -100 -21 -138 -24 -295 -21 -187 3 -225 -4 -225 -40 0 -17 -4 -16
-121 15 -85 23 -110 36 -103 55 10 24 -21 61 -70 85 -25 12 -49 22 -53 22 -4
0 -20 9 -35 19 -14 10 -29 19 -33 19 -3 0 -34 19 -68 42 -202 135 -369 323
-476 535 -41 81 -106 263 -116 326 -3 18 -10 59 -16 91 -22 122 -9 400 22 503
6 17 12 43 15 57 9 50 66 192 110 276 159 299 442 544 753 651 82 29 198 57
261 64 30 4 56 8 57 9 9 9 271 1 338 -10z"/>
<path d="M2394 3732 c-195 -26 -351 -92 -564 -239 -46 -32 -185 -178 -232
-243 -86 -122 -171 -308 -192 -426 -3 -13 -10 -52 -16 -87 -14 -71 -16 -246
-5 -327 62 -465 396 -856 840 -985 186 -54 348 -63 548 -31 77 12 220 61 312
106 706 348 879 1283 344 1863 -83 91 -116 107 -165 79 -13 -7 -33 1 -88 38
-39 26 -81 52 -93 59 -16 8 -22 19 -19 34 8 51 -16 72 -119 107 -177 60 -361
78 -551 52z"/>
</g>
</svg>
